<svg xmlns="http://www.w3.org/2000/svg" width="51" height="40" viewBox="0 0 51 40" fill="none">
<g clip-path="url(#clip0_872_7463)">
<path d="M28.9875 19.4297C27.0428 19.679 25.6614 19.492 26.7156 17.2035C29.3329 11.5312 32.25 6.03697 37.3482 2.06546C41.5285 -1.19367 46.8721 -0.516906 49.6075 3.4635C52.3701 7.48844 50.9433 12.3148 46.145 15.0396C40.7924 18.0761 34.8127 18.7885 28.9966 19.4297H28.9875Z" fill="white"/>
<path d="M22.0093 20.5698C23.954 20.3205 25.3354 20.5075 24.2812 22.796C21.664 28.4683 18.7468 33.9625 13.6486 37.934C9.4683 41.1932 4.12475 40.5164 1.38936 36.536C-1.37329 32.5111 0.0534752 27.6847 4.85177 24.9599C10.2044 21.9233 16.1841 21.211 22.0002 20.5698H22.0093Z" fill="white"/>
<path d="M26.2615 21.5315C26.1615 21.2376 26.3978 20.9171 26.7159 20.926C31.2506 20.9705 35.2674 21.674 38.9751 23.5974C42.5829 25.4674 43.5371 28.8155 41.4652 31.6116C39.4477 34.3365 36.2307 34.6125 33.259 32.1281C29.9329 29.3498 27.7519 25.8325 26.2615 21.5315Z" fill="white"/>
<path d="M24.5539 18.566C24.6539 18.8509 24.4267 19.1626 24.1086 19.1626C19.5739 19.1269 15.548 18.4146 11.8312 16.4912C8.22337 14.6212 7.26917 11.273 9.34116 8.4769C11.3586 5.75206 14.5757 5.47601 17.5473 7.96043C20.8734 10.7387 23.0545 14.265 24.5448 18.5749L24.5539 18.566Z" fill="white"/>
</g>
<defs>
<clipPath id="clip0_872_7463">
<rect width="51" height="40" fill="white"/>
</clipPath>
</defs>
</svg>